<svg width="2658" height="1467" xmlns="http://www.w3.org/2000/svg" xmlns:xlink="http://www.w3.org/1999/xlink" xml:space="preserve" overflow="hidden"><defs><clipPath id="clip0"><rect x="850" y="601" width="2658" height="1467"/></clipPath><clipPath id="clip1"><rect x="3074" y="1652" width="310" height="349"/></clipPath><clipPath id="clip2"><rect x="3074" y="1652" width="310" height="349"/></clipPath><clipPath id="clip3"><rect x="3074" y="1652" width="310" height="349"/></clipPath><clipPath id="clip4"><rect x="2994" y="1558" width="196" height="175"/></clipPath><clipPath id="clip5"><rect x="2994" y="1558" width="196" height="175"/></clipPath><clipPath id="clip6"><rect x="2994" y="1558" width="196" height="175"/></clipPath></defs><g clip-path="url(#clip0)" transform="translate(-850 -601)"><g clip-path="url(#clip1)"><g clip-path="url(#clip2)"><g clip-path="url(#clip3)"><path d="M85.2051 348.809C84.6052 348.755 82.8057 348.455 81.1697 348.155 67.3461 345.592 55.5128 336.512 49.3508 323.779 42.6434 309.928 43.4887 293.842 51.6138 280.7 56.8488 272.247 65.2466 265.567 74.8987 262.213 79.0703 260.741 82.7512 260.059 87.1682 259.896L91.0126 259.787 93.4938 252.78C94.8571 248.935 95.975 245.663 95.975 245.5 95.975 245.336 95.2933 245.009 94.4754 244.736 89.4585 243.155 86.5956 240.237 86.023 236.12 85.914 235.248 85.6686 234.73 85.3959 234.621 85.1233 234.512 81.3061 233.148 76.889 231.594 72.472 230.013 66.828 227.995 64.3469 227.123 61.8657 226.25 55.3219 223.905 49.7598 221.942 44.2248 219.979 38.6899 218.016 37.5175 217.58L35.3635 216.789 34.8182 217.525C33.5367 219.243 29.4196 223.06 27.4565 224.342 23.9392 226.632 20.7219 227.641 16.9047 227.668 9.16125 227.668 3.35367 222.433 0.899765 213.299 0.272656 210.927 0.190859 210.109 0.163594 205.992 0.163594 202.12 0.245391 200.893 0.763437 198.548 3.35367 186.906 9.78836 177.854 18.4043 173.791 21.4308 172.373 23.1212 171.992 26.1205 171.964 33.5912 171.937 39.3716 176.927 41.8255 185.488 42.5071 187.86 43.1887 193.313 43.0251 195.004L42.9433 195.822 47.1695 197.321C51.6956 198.93 62.3565 202.72 75.4712 207.382 79.9155 208.964 85.7776 211.036 88.4497 211.99L93.3302 213.762 94.5299 212.645C95.1843 212.045 96.3022 211.309 97.0111 210.981 98.5379 210.3 101.919 210.027 103.473 210.463 104.209 210.654 104.591 210.654 104.727 210.463 104.809 210.327 105.463 208.009 106.172 205.365 109.172 194.213 113.916 178.59 122.15 152.824 133.574 117.106 137.719 103.309 140.827 90.6582 146.771 66.4463 146.771 53.3588 140.881 50.6323 132.102 46.5424 113.125 49.9779 89.8402 59.848 85.0142 61.893 74.5715 67.128 70.8906 69.3637 67.3733 71.4632 63.7743 74.0807 63.6107 74.5987 63.4744 75.035 68.3276 77.2162 72.6629 78.634L76.5073 79.9155 81.8786 88.6951C86.4865 96.1931 87.1954 97.5018 86.7865 97.6654 86.5138 97.7745 68.0822 100.256 45.8062 103.2 23.5302 106.145 5.1532 108.599 4.93508 108.681 4.68969 108.763 4.60789 108.626 4.71695 108.19 4.77148 107.836 7.52531 100.937 10.8245 92.8394 14.1236 84.7415 22.0034 65.3012 28.3562 49.6234 34.7091 33.9457 39.9714 21.0218 40.0805 20.9127 40.5167 20.4219 42.7525 24.948 43.5705 27.9473 44.961 33.0187 47.0332 42.1254 48.8055 50.7686L49.4053 53.686 51.3684 51.6138C52.4318 50.4959 53.3861 49.4053 53.4951 49.2144 53.8769 48.5873 62.0565 41.1711 65.5738 38.3082 73.8353 31.5191 91.9942 18.4588 98.3471 14.7234 121.414 1.09062 155.414-3.54453 184.316 3.02648 200.293 6.68008 213.872 13.3056 227.559 24.1301 229.058 25.3298 231.349 27.1293 232.603 28.1109 244.409 37.4084 253.57 49.7052 259.95 64.8649 264.177 74.8987 266.712 84.1144 271.293 106.254 272.52 112.062 274.101 119.287 274.837 122.286 276.255 128.039 278.273 134.965 278.627 135.319 278.764 135.456 279.991 134.583 281.408 133.411 285.307 130.139 291.715 125.04 295.968 121.823L299.785 118.933 303.957 117.569 308.101 116.206 308.101 117.324C308.101 118.033 307.011 121.714 305.266 127.058 303.684 131.775 299.322 145.026 295.559 156.505 291.797 167.983 287.134 182.162 285.198 187.996 283.263 193.859 281.163 200.239 280.536 202.175 279.936 204.138 279.309 205.828 279.2 205.937 279.091 206.074 266.494 192.332 251.225 175.4 235.957 158.495 223.36 144.562 223.224 144.481 223.087 144.371 223.087 144.235 223.196 144.153 223.333 144.099 227.395 142.736 232.221 141.127L241.001 138.264 242.855 139.027C245.772 140.282 249.971 141.672 252.316 142.19 254.388 142.654 254.497 142.654 254.852 142.163 255.67 141.045 255.015 136.355 253.434 132.102 249.753 122.286 241.846 107.836 232.521 94.0391 229.767 89.922 228.813 88.7496 225.923 85.9412 220.224 80.4063 215.317 76.8072 210.954 75.035 208.527 74.0534 205.065 73.8898 203.292 74.6805 201.166 75.6076 199.393 77.0799 197.594 79.452 193.586 84.6052 191.459 88.6405 185.597 101.837 177.09 121.114 158.495 165.802 139.927 211.718L135.837 221.806 137.637 222.651C140.745 224.096 142.981 227.041 143.39 230.231L143.553 231.567 150.234 233.939C171.174 241.383 184.479 246.099 188.951 247.681L193.968 249.48 194.649 248.608C197.294 245.145 201.711 241.492 205.119 239.937 208.827 238.247 213.19 237.783 216.625 238.71 224.86 240.919 230.04 250.135 229.495 261.614 228.84 274.728 221.642 286.998 211.718 291.906 208.582 293.433 206.619 293.923 203.538 293.923 199.012 293.923 196.203 292.724 192.904 289.425 188.923 285.498 186.988 280.454 186.633 273.201L186.524 270.611 185.352 270.148C184.697 269.875 179.653 268.076 174.091 266.112 168.556 264.149 161.985 261.804 159.504 260.932 140.772 254.252 136.464 252.752 136.246 252.752 136.11 252.752 135.51 253.189 134.938 253.707 133.574 254.934 132.184 255.615 130.275 255.997 128.367 256.406 126.867 256.215 123.813 255.179 122.532 254.743 121.496 254.415 121.468 254.47 121.441 254.497 120.269 257.715 118.905 261.614L116.397 268.703 117.842 269.902C126.649 277.237 132.238 287.461 133.738 299.022 135.101 309.41 132.511 320.18 126.458 329.287 123.786 333.322 118.469 338.639 114.434 341.338 105.709 347.119 95.4842 349.736 85.2051 348.809ZM95.157 326.233C104.673 323.697 111.435 315.463 111.98 305.729 112.362 299.158 110.071 293.051 105.518 288.47 102.573 285.471 99.1923 283.535 95.1297 282.417 93.3302 281.926 92.1305 281.817 89.4312 281.817 85.3414 281.817 83.2692 282.281 79.7519 283.971 72.6083 287.461 68.0822 293.678 67.0462 301.503 66.0101 309.247 69.4455 317.508 75.6621 322.225 78.0615 324.052 81.3333 325.633 83.9781 326.233 85.096 326.479 86.1594 326.751 86.2957 326.806 87.0319 327.078 93.5483 326.669 95.157 326.233Z" fill="#8B6CEF" transform="matrix(1.00289 0 0 -1 3075 2001)"/></g></g></g><g clip-path="url(#clip4)"><g clip-path="url(#clip5)"><g clip-path="url(#clip6)"><path d="M157.347 171.734C149.403 170.74 141.597 166.699 135.076 160.178 130.025 155.143 125.388 148.331 120.933 139.439 117.321 132.214 114.474 124.729 112.76 118.041L112.27 116.097 110.326 115.102C107.602 113.709 105.214 112.24 102.505 110.311 93.2141 103.668 85.1631 95.6784 78.4591 86.4488 77.8009 85.5305 77.1733 84.7958 77.0509 84.7958 76.9437 84.7958 76.1019 84.9182 75.1989 85.056 73.1172 85.3927 66.1836 85.4386 63.5968 85.1325 52.8979 83.8315 43.1479 80.6937 31.4234 74.755 22.9591 70.4693 17.5102 66.6581 12.1683 61.3009 5.46428 54.5968 1.45408 47.1581 0.290816 39.2601 0.0153061 37.4999 0.0153061 32.5102 0.290816 30.6887 1.72959 20.6785 7.49999 11.1122 15.153 6.04591 24.0306 0.168367 36.0152-1.43877 49.7448 1.39285 59.954 3.5204 70.0407 7.43876 80.1121 13.2245 89.8927 18.8418 96.6733 25.0102 101.449 32.602 102.214 33.8265 102.459 34.0867 102.949 34.2704 110.831 37.1173 116.326 40.0561 122.571 44.7703 128.265 49.056 132.245 52.8213 139.76 61.0407 141.689 63.153 142.025 63.6274 142.132 64.3162 142.224 64.806 142.285 64.8825 142.561 64.8213 144.015 64.5305 148.775 64.4846 150.872 64.7448 156.75 65.4642 162.306 67.8519 167.831 72.0152 175.209 77.5866 182.097 86.8927 186.964 97.8825 194.28 114.413 197.051 128.342 195.459 140.694 195.061 143.862 194.663 145.622 193.775 148.347 192.566 152.005 190.714 155.556 188.449 158.571 187.224 160.178 184.01 163.377 182.403 164.571 177.918 167.893 171.306 170.586 165.382 171.505 163.515 171.796 158.908 171.918 157.347 171.734ZM164.234 149.694C169.714 148.377 173.296 143.923 174.183 137.296 174.413 135.643 174.413 131.372 174.183 129.566 173.28 122.158 170.617 113.495 166.821 105.643 163.959 99.7039 161.77 96.2294 158.678 92.7243 157.76 91.6835 154.775 89.005 154.653 89.1274 154.637 89.1427 154.852 90.0917 155.143 91.2243 155.847 93.9794 156.107 95.6478 156.229 98.0355 156.428 102.49 155.464 106.76 153.459 110.173 150.076 115.959 144.52 119.786 138.03 120.842 137.709 120.888 137.449 120.979 137.449 121.056 137.449 121.117 138 122.571 138.658 124.301 142.653 134.663 146.173 140.74 150.78 145.178 153.734 148.041 155.586 149.143 158.495 149.77 159.949 150.092 162.704 150.046 164.234 149.694ZM135.092 99.1376C136.561 97.607 136.683 96.9794 136.393 92.7702L136.301 91.3162 135.903 91.9284C135.26 92.8927 134.755 93.9641 134.418 95.0815 134.234 95.6478 133.99 96.3213 133.852 96.5815 133.653 96.9488 133.347 99.1529 133.316 100.377 133.316 100.714 134.158 100.117 135.092 99.1376ZM114.321 90.6427C115.408 84.1988 117.658 79.2244 121.224 75.4131L122.495 74.0662 122.112 73.6529C121.913 73.4233 120.811 72.2142 119.678 70.9438 115.301 66.0458 111.735 62.5407 108.26 59.755 107.081 58.7907 106.056 58.0101 106.01 58.0101 105.964 58.0101 105.888 58.2703 105.826 58.5917 105.612 59.7244 104.51 62.7244 103.561 64.6683 102.03 67.8366 100.331 70.3315 97.6835 73.2856L96.3978 74.7091 97.5611 76.1325C100.928 80.2805 105.796 85.3468 110.051 89.1733 112.469 91.3315 113.939 92.6019 113.984 92.556 114 92.5407 114.153 91.6682 114.321 90.6427ZM67.7601 63.107C67.7142 62.7856 67.5305 61.5764 67.3468 60.3979 66.7193 56.2499 66.6887 50.3264 67.2703 46.9132 67.806 43.806 68.8927 40.9438 70.3162 38.9693 71.0968 37.8979 72.7805 36.2142 73.7601 35.5867L74.4182 35.1428 73.9897 34.7908C72.2907 33.4132 66.8264 30.3367 62.204 28.1785 55.4081 24.9949 49.8979 23.204 43.5458 22.0867 41.3571 21.704 40.7295 21.6581 37.653 21.6581 34.8673 21.6581 33.9642 21.7194 32.9387 21.9336 28.653 22.8826 25.8061 24.6734 23.9234 27.5969 22.4234 29.9234 21.8877 31.7755 21.8724 34.4693 21.8724 38.8775 23.4796 42.0305 27.9949 46.5305 33.0306 51.5356 39.0918 55.1326 49.7601 59.4336 55.4387 61.7295 61.607 63.306 65.9693 63.5662 68.0662 63.6887 67.8519 63.7499 67.7601 63.107ZM85.056 53.1581C85.0101 53.005 84.9794 53.1275 84.9794 53.4183 84.9794 53.7091 85.0101 53.8315 85.056 53.6938 85.0866 53.5407 85.0866 53.2958 85.056 53.1581Z" fill="#8B6CEF" transform="matrix(-1 0 0 -1.00647 3189.96 1732)"/></g></g></g><path d="M1161 1333.5C1161 1030.02 1406.8 784 1710 784 2013.2 784 2259 1030.02 2259 1333.5 2259 1636.98 2013.2 1883 1710 1883 1406.8 1883 1161 1636.98 1161 1333.5Z" fill="#8B6CEF" fill-rule="evenodd" fill-opacity="0.54902"/><text fill="#FFFFFF" font-family="Arial,Arial_MSFontService,sans-serif" font-weight="400" font-size="92" transform="matrix(1 0 0 1 1482.92 1320)">Theoretical</text><text fill="#FFFFFF" font-family="Arial,Arial_MSFontService,sans-serif" font-weight="400" font-size="92" transform="matrix(1 0 0 1 1536.49 1430)">Criterio</text><text fill="#FFFFFF" font-family="Arial,Arial_MSFontService,sans-serif" font-weight="400" font-size="92" transform="matrix(1 0 0 1 1832.12 1430)">n</text><path d="M2087 1334.5C2087 1031.02 2333.02 785 2636.5 785 2939.98 785 3186 1031.02 3186 1334.5 3186 1637.98 2939.98 1884 2636.5 1884 2333.02 1884 2087 1637.98 2087 1334.5Z" fill="#6137E9" fill-rule="evenodd" fill-opacity="0.54902"/><text fill="#FFFFFF" font-family="Arial,Arial_MSFontService,sans-serif" font-weight="400" font-size="92" transform="matrix(1 0 0 1 2437.98 1320)">Observed</text><text fill="#FFFFFF" font-family="Arial,Arial_MSFontService,sans-serif" font-weight="400" font-size="92" transform="matrix(1 0 0 1 2463.19 1430)">Criterio</text><text fill="#FFFFFF" font-family="Arial,Arial_MSFontService,sans-serif" font-weight="400" font-size="92" transform="matrix(1 0 0 1 2758.81 1430)">n</text><text fill="#8B6CEF" font-family="Arial,Arial_MSFontService,sans-serif" font-weight="400" font-size="83" transform="matrix(1 0 0 1 900.316 1958)">Deficiency</text><text fill="#8B6CEF" font-family="Arial,Arial_MSFontService,sans-serif" font-weight="400" font-size="83" transform="matrix(1 0 0 1 2901.53 707)">Contamination</text><text fill="#8B6CEF" font-family="Arial,Arial_MSFontService,sans-serif" font-weight="400" font-size="83" transform="matrix(1 0 0 1 1947.16 1964)">Relevance</text><path d="M1.14583-0.00295999 2.38765 480.711 0.0959863 480.717-1.14583 0.00295999ZM14.9799 476.096 1.30102 503.631-12.52 476.167Z" fill="#8B6CEF" transform="matrix(1 0 0 -1 2169 1850.63)"/><text fill="#8B6CEF" font-family="Arial,Arial_MSFontService,sans-serif" font-weight="400" font-size="83" transform="matrix(1 0 0 1 1017.78 707)">Bias</text><path d="M1106.15 743 1106.15 1837.74 1103.85 1837.74 1103.85 743ZM1118.75 1833.16 1105 1860.66 1091.25 1833.16Z" fill="#8B6CEF"/><path d="M1225 675.854 2845.32 675.854 2845.32 678.146 1225 678.146ZM2840.74 663.25 2868.24 677 2840.74 690.75Z" fill="#8B6CEF"/><text fill="#FFFFFF" font-family="Arial,Arial_MSFontService,sans-serif" font-weight="400" font-size="83" transform="matrix(0.958512 -0.285052 0.285052 0.958512 3239.63 1987)">α</text><path d="M0.632543-0.955418 351.587 231.397 350.322 233.308-0.632543 0.955418ZM354.723 218.357 370.063 245.003 339.542 241.287Z" fill="#8B6CEF" transform="matrix(-1 0 0 1 3188.06 743)"/><path d="M0.60408-0.973664 335.967 207.092 334.759 209.039-0.60408 0.973664ZM338.718 193.966 354.837 220.148 324.22 217.334Z" fill="#8B6CEF" transform="matrix(1 0 0 -1 1343 1928.15)"/></g></svg>